HIERARCHY
ROOT newVegas:Hips
{
	OFFSET 0.000000 96.479958 0.000000
	CHANNELS 6 Xposition Yposition Zposition Xrotation Yrotation Zrotation
	JOINT newVegas:Pelvis
	{
		OFFSET 0.000000 0.000000 0.000000
		CHANNELS 3 Xrotation Yrotation Zrotation
		JOINT newVegas:LeftUpLeg
		{
			OFFSET 18.735201 -5.666702 -4.541200
			CHANNELS 3 Xrotation Yrotation Zrotation
			JOINT newVegas:LeftLeg
			{
				OFFSET -0.021200 -31.938179 0.493100
				CHANNELS 3 Xrotation Yrotation Zrotation
				JOINT newVegas:LeftFoot
				{
					OFFSET 0.021200 -31.938179 -4.336299
					CHANNELS 3 Xrotation Yrotation Zrotation
					JOINT newVegas:LeftToeBase
					{
						OFFSET 0.943001 -26.722000 15.023500
						CHANNELS 3 Xrotation Yrotation Zrotation
						End Site
						{
							OFFSET 0.000000 30.670183 0.000000
						}
					}
				}
				JOINT newVegas:Left_PantLeg
				{
					OFFSET 0.663870 -9.044666 -1.108900
					CHANNELS 3 Xrotation Yrotation Zrotation
					End Site
					{
						OFFSET 1.415995 20.635357 0.000000
					}
				}
			}
		}
		JOINT newVegas:RightUpLeg
		{
			OFFSET -18.735201 -5.666702 -4.541200
			CHANNELS 3 Xrotation Yrotation Zrotation
			JOINT newVegas:RightLeg
			{
				OFFSET 0.018946 -31.938133 0.493100
				CHANNELS 3 Xrotation Yrotation Zrotation
				JOINT newVegas:RightFoot
				{
					OFFSET -0.018946 -31.938126 -4.336299
					CHANNELS 3 Xrotation Yrotation Zrotation
					JOINT newVegas:RightToeBase
					{
						OFFSET -0.943001 -26.722004 15.023500
						CHANNELS 3 Xrotation Yrotation Zrotation
						End Site
						{
							OFFSET 0.000000 30.670187 0.000000
						}
					}
				}
				JOINT newVegas:Right_PantLeg
				{
					OFFSET -0.661674 -9.044716 -1.108900
					CHANNELS 3 Xrotation Yrotation Zrotation
					End Site
					{
						OFFSET -1.415958 20.635269 0.000000
					}
				}
			}
		}
	}
	JOINT newVegas:Spine
	{
		OFFSET 0.000000 10.199997 -0.299500
		CHANNELS 3 Xrotation Yrotation Zrotation
		JOINT newVegas:Spine1
		{
			OFFSET 0.000000 11.900002 -1.516600
			CHANNELS 3 Xrotation Yrotation Zrotation
			JOINT newVegas:Spine2
			{
				OFFSET 0.000000 13.600006 -2.842500
				CHANNELS 3 Xrotation Yrotation Zrotation
				JOINT newVegas:Neck
				{
					OFFSET 0.000000 9.624100 -2.890100
					CHANNELS 3 Xrotation Yrotation Zrotation
					JOINT newVegas:Head
					{
						OFFSET 0.000000 14.068802 -1.351900
						CHANNELS 3 Xrotation Yrotation Zrotation
						JOINT newVegas:Hair_Back
						{
							OFFSET 0.000000 3.231903 -17.524799
							CHANNELS 3 Xrotation Yrotation Zrotation
							End Site
							{
								OFFSET 0.000000 19.849884 0.000000
							}
						}
						JOINT newVegas:Hair_Front
						{
							OFFSET 0.000000 31.260406 4.573800
							CHANNELS 3 Xrotation Yrotation Zrotation
							JOINT newVegas:Hair_Front1
							{
								OFFSET 0.000000 2.284103 11.993300
								CHANNELS 3 Xrotation Yrotation Zrotation
								JOINT newVegas:Hair_Front2
								{
									OFFSET 0.000000 2.284103 11.993300
									CHANNELS 3 Xrotation Yrotation Zrotation
									End Site
									{
										OFFSET 0.000000 12.208862 0.000000
									}
								}
							}
						}
						JOINT newVegas:Jowel
						{
							OFFSET 0.000000 -7.458206 6.864100
							CHANNELS 3 Xrotation Yrotation Zrotation
							End Site
							{
								OFFSET 0.000000 19.849884 0.000000
							}
						}
					}
				}
				JOINT newVegas:LeftShoulder
				{
					OFFSET 15.263000 10.923401 -0.547700
					CHANNELS 3 Xrotation Yrotation Zrotation
					JOINT newVegas:LeftArm
					{
						OFFSET 25.438599 -2.830597 -13.032500
						CHANNELS 3 Xrotation Yrotation Zrotation
						JOINT newVegas:LeftForeArm
						{
							OFFSET 29.960503 0.000000 0.000000
							CHANNELS 3 Xrotation Yrotation Zrotation
							JOINT newVegas:LeftHand
							{
								OFFSET 27.849251 0.000000 0.000000
								CHANNELS 3 Xrotation Yrotation Zrotation
								JOINT newVegas:LeftHandThumb1
								{
									OFFSET 4.487587 -3.305161 6.305391
									CHANNELS 3 Xrotation Yrotation Zrotation
									JOINT newVegas:LeftHandThumb2
									{
										OFFSET 5.480453 -3.164139 3.164143
										CHANNELS 3 Xrotation Yrotation Zrotation
										JOINT newVegas:LeftHandThumb3
										{
											OFFSET 5.159721 -2.978973 2.978967
											CHANNELS 3 Xrotation Yrotation Zrotation
											End Site
											{
												OFFSET 2.494507 5.926697 1.738678
											}
										}
									}
								}
								JOINT newVegas:LeftHandIndex1
								{
									OFFSET 18.578728 -0.527832 5.208049
									CHANNELS 3 Xrotation Yrotation Zrotation
									JOINT newVegas:LeftHandIndex2
									{
										OFFSET 3.192009 0.000000 0.000000
										CHANNELS 3 Xrotation Yrotation Zrotation
										JOINT newVegas:LeftHandIndex3
										{
											OFFSET 3.835129 0.000000 0.000000
											CHANNELS 3 Xrotation Yrotation Zrotation
											End Site
											{
												OFFSET -0.034599 3.816971 0.371180
											}
										}
									}
								}
								JOINT newVegas:LeftHandMiddle1
								{
									OFFSET 18.476105 0.000000 0.000000
									CHANNELS 3 Xrotation Yrotation Zrotation
									JOINT newVegas:LeftHandMiddle2
									{
										OFFSET 3.324875 0.000000 0.000000
										CHANNELS 3 Xrotation Yrotation Zrotation
										JOINT newVegas:LeftHandMiddle3
										{
											OFFSET 4.596550 0.000000 0.000000
											CHANNELS 3 Xrotation Yrotation Zrotation
											End Site
											{
												OFFSET 0.057701 4.578827 0.399218
											}
										}
									}
								}
								JOINT newVegas:LeftHandRing1
								{
									OFFSET 17.732719 0.121887 -4.201567
									CHANNELS 3 Xrotation Yrotation Zrotation
									JOINT newVegas:LeftHandRing2
									{
										OFFSET 2.733170 0.000000 0.000000
										CHANNELS 3 Xrotation Yrotation Zrotation
										JOINT newVegas:LeftHandRing3
										{
											OFFSET 3.178268 0.000000 0.000000
											CHANNELS 3 Xrotation Yrotation Zrotation
											End Site
											{
												OFFSET 0.119102 3.170624 0.185394
											}
										}
									}
								}
								JOINT newVegas:LeftHandPinky1
								{
									OFFSET 15.989624 -0.606689 -7.535461
									CHANNELS 3 Xrotation Yrotation Zrotation
									JOINT newVegas:LeftHandPinky2
									{
										OFFSET 2.538986 0.000000 0.000000
										CHANNELS 3 Xrotation Yrotation Zrotation
										JOINT newVegas:LeftHandPinky3
										{
											OFFSET 2.593102 0.000000 0.000000
											CHANNELS 3 Xrotation Yrotation Zrotation
											End Site
											{
												OFFSET -0.150902 2.584198 0.152708
											}
										}
									}
								}
							}
							JOINT newVegas:Left_Sleeve
							{
								OFFSET 0.267448 -0.649796 0.577675
								CHANNELS 3 Xrotation Yrotation Zrotation
								End Site
								{
									OFFSET 0.000000 15.991241 0.000000
								}
							}
							JOINT newVegas:Left_CapeC
							{
								OFFSET 15.715958 -8.608795 -6.935905
								CHANNELS 3 Xrotation Yrotation Zrotation
								JOINT newVegas:Left_CapeC1
								{
									OFFSET 0.000000 -8.688499 0.000000
									CHANNELS 3 Xrotation Yrotation Zrotation
									End Site
									{
										OFFSET 0.000000 8.688499 0.000000
									}
								}
							}
						}
						JOINT newVegas:Left_CapeB
						{
							OFFSET 26.118385 -8.608795 -7.079235
							CHANNELS 3 Xrotation Yrotation Zrotation
							JOINT newVegas:Left_CapeB1
							{
								OFFSET 0.000000 -8.688499 0.000000
								CHANNELS 3 Xrotation Yrotation Zrotation
								End Site
								{
									OFFSET 0.000000 8.688499 0.000000
								}
							}
						}
						JOINT newVegas:Left_CapeA
						{
							OFFSET 5.115639 -8.608795 -10.395809
							CHANNELS 3 Xrotation Yrotation Zrotation
							JOINT newVegas:Left_CapeA1
							{
								OFFSET 0.000000 -8.688499 0.000000
								CHANNELS 3 Xrotation Yrotation Zrotation
								End Site
								{
									OFFSET 0.000000 8.688499 0.000000
								}
							}
						}
					}
				}
				JOINT newVegas:RightShoulder
				{
					OFFSET -15.263000 10.923401 -0.547700
					CHANNELS 3 Xrotation Yrotation Zrotation
					JOINT newVegas:RightArm
					{
						OFFSET -25.438599 -2.830597 -13.032500
						CHANNELS 3 Xrotation Yrotation Zrotation
						JOINT newVegas:RightForeArm
						{
							OFFSET -29.960503 0.000000 0.000000
							CHANNELS 3 Xrotation Yrotation Zrotation
							JOINT newVegas:RightHand
							{
								OFFSET -27.849251 0.000000 0.000000
								CHANNELS 3 Xrotation Yrotation Zrotation
								JOINT newVegas:RightHandThumb1
								{
									OFFSET -4.487587 -3.305161 6.305391
									CHANNELS 3 Xrotation Yrotation Zrotation
									JOINT newVegas:RightHandThumb2
									{
										OFFSET -5.480453 -3.164139 3.164143
										CHANNELS 3 Xrotation Yrotation Zrotation
										JOINT newVegas:RightHandThumb3
										{
											OFFSET -5.159721 -2.978973 2.978967
											CHANNELS 3 Xrotation Yrotation Zrotation
											End Site
											{
												OFFSET -2.494507 5.926697 1.738678
											}
										}
									}
								}
								JOINT newVegas:RightHandIndex1
								{
									OFFSET -18.578728 -0.527832 5.208049
									CHANNELS 3 Xrotation Yrotation Zrotation
									JOINT newVegas:RightHandIndex2
									{
										OFFSET -3.192009 0.000000 0.000000
										CHANNELS 3 Xrotation Yrotation Zrotation
										JOINT newVegas:RightHandIndex3
										{
											OFFSET -3.835129 0.000000 0.000000
											CHANNELS 3 Xrotation Yrotation Zrotation
											End Site
											{
												OFFSET 0.034599 3.816971 0.371180
											}
										}
									}
								}
								JOINT newVegas:RightHandMiddle1
								{
									OFFSET -18.476105 0.000000 0.000000
									CHANNELS 3 Xrotation Yrotation Zrotation
									JOINT newVegas:RightHandMiddle2
									{
										OFFSET -3.324875 0.000000 0.000000
										CHANNELS 3 Xrotation Yrotation Zrotation
										JOINT newVegas:RightHandMiddle3
										{
											OFFSET -4.596550 0.000000 0.000000
											CHANNELS 3 Xrotation Yrotation Zrotation
											End Site
											{
												OFFSET -0.057701 4.578827 0.399218
											}
										}
									}
								}
								JOINT newVegas:RightHandRing1
								{
									OFFSET -17.732719 0.121887 -4.201567
									CHANNELS 3 Xrotation Yrotation Zrotation
									JOINT newVegas:RightHandRing2
									{
										OFFSET -2.733170 0.000000 0.000000
										CHANNELS 3 Xrotation Yrotation Zrotation
										JOINT newVegas:RightHandRing3
										{
											OFFSET -3.178268 0.000000 0.000000
											CHANNELS 3 Xrotation Yrotation Zrotation
											End Site
											{
												OFFSET -0.119102 3.170624 0.185394
											}
										}
									}
								}
								JOINT newVegas:RightHandPinky1
								{
									OFFSET -15.989624 -0.606689 -7.535461
									CHANNELS 3 Xrotation Yrotation Zrotation
									JOINT newVegas:RightHandPinky2
									{
										OFFSET -2.538986 0.000000 0.000000
										CHANNELS 3 Xrotation Yrotation Zrotation
										JOINT newVegas:RightHandPinky3
										{
											OFFSET -2.593102 0.000000 0.000000
											CHANNELS 3 Xrotation Yrotation Zrotation
											End Site
											{
												OFFSET 0.150902 2.584198 0.152708
											}
										}
									}
								}
							}
							JOINT newVegas:Right_CapeC
							{
								OFFSET -15.715958 -8.608795 -6.935905
								CHANNELS 3 Xrotation Yrotation Zrotation
								JOINT newVegas:Right_CapeC1
								{
									OFFSET 0.000000 -8.688499 0.000000
									CHANNELS 3 Xrotation Yrotation Zrotation
									End Site
									{
										OFFSET 0.000000 8.688499 0.000000
									}
								}
							}
							JOINT newVegas:Right_Sleeve
							{
								OFFSET -0.267448 -0.649994 0.577675
								CHANNELS 3 Xrotation Yrotation Zrotation
								End Site
								{
									OFFSET 0.000000 15.991302 0.000000
								}
							}
						}
						JOINT newVegas:Right_CapeA
						{
							OFFSET -5.115540 -8.608795 -10.395824
							CHANNELS 3 Xrotation Yrotation Zrotation
							JOINT newVegas:Right_CapeA1
							{
								OFFSET 0.000000 -8.688499 0.000000
								CHANNELS 3 Xrotation Yrotation Zrotation
								End Site
								{
									OFFSET 0.000000 8.688499 0.000000
								}
							}
						}
						JOINT newVegas:Right_CapeB
						{
							OFFSET -26.118187 -8.608795 -7.079266
							CHANNELS 3 Xrotation Yrotation Zrotation
							JOINT newVegas:Right_CapeB1
							{
								OFFSET 0.000000 -8.688499 0.000000
								CHANNELS 3 Xrotation Yrotation Zrotation
								End Site
								{
									OFFSET 0.000000 8.688499 0.000000
								}
							}
						}
					}
				}
				JOINT newVegas:Left_Collar
				{
					OFFSET 18.625099 8.655502 8.828100
					CHANNELS 3 Xrotation Yrotation Zrotation
					JOINT newVegas:Left_Collar1
					{
						OFFSET 14.783401 10.540405 -1.259500
						CHANNELS 3 Xrotation Yrotation Zrotation
						End Site
						{
							OFFSET 0.000000 18.199875 0.000000
						}
					}
				}
				JOINT newVegas:Collar_Back
				{
					OFFSET 0.000000 15.630707 -20.132601
					CHANNELS 3 Xrotation Yrotation Zrotation
					End Site
					{
						OFFSET 0.000000 22.523010 0.000000
					}
				}
				JOINT newVegas:Left_Peck
				{
					OFFSET 17.239599 -5.132599 25.482599
					CHANNELS 3 Xrotation Yrotation Zrotation
					End Site
					{
						OFFSET 0.000000 22.523010 0.000000
					}
				}
				JOINT newVegas:Right_Peck
				{
					OFFSET -17.239599 -5.132202 25.482599
					CHANNELS 3 Xrotation Yrotation Zrotation
					End Site
					{
						OFFSET 0.000000 22.523010 0.000000
					}
				}
				JOINT newVegas:Right_Collar
				{
					OFFSET -18.625099 8.655792 8.828100
					CHANNELS 3 Xrotation Yrotation Zrotation
					JOINT newVegas:Right_Collar1
					{
						OFFSET -14.783401 10.539993 -1.259500
						CHANNELS 3 Xrotation Yrotation Zrotation
						End Site
						{
							OFFSET 0.000000 18.199631 0.000000
						}
					}
				}
			}
		}
		JOINT newVegas:Belly
		{
			OFFSET 0.000000 -6.540398 9.014299
			CHANNELS 3 Xrotation Yrotation Zrotation
			End Site
			{
				OFFSET 0.000000 11.566666 0.000000
			}
		}
	}
	JOINT newVegas:ElvisFacialAnim_Joint
	{
		OFFSET 1.000000 -95.330101 -8.825800
		CHANNELS 3 Xrotation Yrotation Zrotation
		End Site
		{
			OFFSET 0.000000 35.315800 0.000000
		}
	}
}
MOTION
Frames: 4
Frame Time: 0.033333
-2.656814 87.822662 1.999784 -6.082236 -42.937465 -3.795458 0.000000 0.000003 -0.000000 -34.399858 2.848806 16.366976 38.649776 -14.735862 -0.135689 -1.812263 0.994677 -11.095145 -0.000000 -0.000000 0.000000 -0.000001 -0.000001 0.000001 1.080404 -13.657111 -18.468540 33.746175 -7.730980 -0.245316 -25.554390 -6.497143 21.380941 0.000000 0.000000 -0.000000 0.000000 -0.000001 0.000002 5.850084 4.521007 -1.454116 11.834997 9.027856 -3.081617 11.834997 9.027851 -3.081613 -0.860907 -0.254794 0.048070 -0.860912 -0.254796 0.048069 0.000001 -0.000001 0.000001 -0.860918 -0.254793 0.048070 -0.860823 -0.254812 0.048073 -0.000004 0.000001 -0.000000 0.000001 -0.000001 0.000000 1.394657 -0.697630 -7.877898 -14.266886 2.394235 -63.276717 9.864147 -47.524931 5.915018 16.172821 0.919171 18.795028 9.163609 4.814089 -5.499029 -0.338151 0.034865 0.776760 0.000002 -0.000002 -0.000003 -0.910372 -6.969760 -3.808174 0.031548 0.798009 -16.417338 0.000002 -0.000002 -0.000000 1.946300 9.683420 -14.539774 -0.457616 -1.571296 -21.880543 0.000000 -0.000000 0.000001 2.610170 14.895505 -31.345733 -0.566453 -2.705322 -32.011936 0.000001 0.000001 -0.000000 4.171256 18.494563 -34.987408 -0.695227 -5.783546 -39.372793 -0.000001 -0.000002 0.000001 -0.000001 0.000002 0.000000 -0.000001 0.000002 0.000000 -0.000002 0.000002 0.000000 0.000000 -0.000001 0.000001 0.000001 0.000000 -0.000001 0.000000 -0.000001 0.000001 0.000001 -0.000000 0.000001 1.424833 9.461578 9.794466 1.221080 -24.270702 60.532975 -6.660684 41.858394 8.043810 6.225239 12.322326 11.673381 -8.895801 -4.903116 -0.383717 7.904588 -19.191940 -2.856823 0.000000 -0.000001 0.000001 -1.077047 -1.214120 4.525225 0.139682 -1.121573 16.942525 0.000000 0.000001 0.000001 -0.663171 -2.903757 12.731637 -0.660283 1.812023 30.579115 0.000001 0.000001 0.000000 2.425235 -7.403924 21.764289 -0.987598 3.758254 37.431674 0.000000 -0.000001 -0.000001 3.484843 -10.063194 24.324911 -1.457359 7.870424 41.092153 -0.000000 -0.000000 0.000002 -0.000001 0.000000 -0.000000 0.000000 0.000000 -0.000002 -0.000001 0.000000 -0.000002 0.000001 0.000001 0.000002 0.000001 0.000002 0.000001 0.000001 0.000001 0.000002 0.000001 0.000002 0.000001 0.000002 0.000000 -0.000000 0.000002 0.000000 -0.000000 0.000002 0.000000 -0.000000 0.000002 0.000000 -0.000000 0.000002 0.000000 -0.000000 0.000002 0.000000 -0.000000 0.000002 0.000000 -0.000000 -0.000000 -0.000000 -0.000000 0.000000 0.000003 -0.000000 
-2.647001 87.833672 1.989548 -6.110034 -42.961057 -3.816921 -0.000000 0.000000 -0.000000 -34.356217 2.858701 16.368487 38.601719 -14.725434 -0.127719 -1.787284 0.991675 -11.107684 -0.000000 0.000000 -0.000000 0.000000 0.000002 -0.000000 1.076259 -13.652786 -18.477810 33.735578 -7.710257 -0.238831 -25.532429 -6.483537 21.365086 -0.000000 0.000000 -0.000000 0.000001 -0.000002 -0.000001 5.847075 4.521111 -1.452912 11.828991 9.028324 -3.079938 11.828985 9.028329 -3.079940 -0.853811 -0.254729 0.047287 -0.853824 -0.254722 0.047283 -0.000001 -0.000002 0.000001 -0.853741 -0.254732 0.047287 -0.853810 -0.254723 0.047283 -0.000002 -0.000001 -0.000000 -0.000001 -0.000002 0.000001 1.398881 -0.718624 -7.874720 -14.266720 2.381324 -63.261608 9.861925 -47.539015 5.915031 16.154302 0.917338 18.777218 9.279857 4.877499 -5.546054 -0.338143 0.034846 0.776764 0.000005 0.000000 -0.000004 -0.910217 -6.968423 -3.887673 0.031574 0.798057 -16.420905 0.000002 -0.000001 0.000002 1.942987 9.670243 -14.575531 -0.457918 -1.572014 -21.889914 -0.000001 0.000001 0.000001 2.605453 14.883069 -31.363733 -0.567114 -2.706321 -32.026392 0.000004 0.000001 -0.000001 4.167827 18.488173 -35.024517 -0.696653 -5.785225 -39.391801 0.000000 -0.000002 0.000001 0.000001 0.000000 0.000001 0.000001 0.000000 0.000001 -0.000000 0.000000 0.000001 -0.000002 -0.000001 0.000001 -0.000002 -0.000001 -0.000001 -0.000002 -0.000001 0.000001 -0.000001 -0.000002 0.000000 1.426617 9.441205 9.754554 1.221025 -24.236779 60.544559 -6.621794 41.873523 8.059835 6.206247 12.299630 11.635909 -8.996421 -5.022251 -0.470964 7.976422 -19.172882 -2.784296 0.000001 -0.000002 -0.000001 -1.079709 -1.196019 4.445942 0.139217 -1.120272 16.906591 -0.000001 -0.000001 -0.000000 -0.660193 -2.916786 12.771489 -0.658496 1.809021 30.522667 0.000000 0.000002 -0.000001 2.428328 -7.413555 21.765827 -0.984567 3.754324 37.385734 0.000000 0.000001 0.000001 3.483882 -10.061099 24.338093 -1.459756 7.873132 41.113364 0.000002 -0.000000 -0.000000 -0.000001 -0.000000 0.000001 -0.000001 -0.000001 0.000001 -0.000001 -0.000001 0.000003 -0.000000 -0.000001 -0.000000 -0.000000 0.000000 -0.000000 -0.000000 -0.000001 -0.000000 0.000000 -0.000000 -0.000002 -0.000000 0.000001 0.000000 -0.000000 0.000001 0.000000 -0.000000 0.000001 0.000000 -0.000000 0.000001 0.000000 -0.000000 0.000001 0.000000 -0.000000 0.000001 0.000000 -0.000000 0.000001 0.000000 -0.000000 -0.000001 0.000000 -0.000000 0.000000 -0.000000 
-2.635627 87.844742 1.983357 -6.134031 -42.977613 -3.835141 -0.000000 0.000000 0.000000 -34.318965 2.869498 16.363376 38.561189 -14.709582 -0.117416 -1.764852 0.988554 -11.117927 0.000000 -0.000001 0.000000 -0.000000 -0.000000 0.000002 1.079909 -13.647507 -18.486112 33.715952 -7.695645 -0.230865 -25.507278 -6.473528 21.350937 0.000000 -0.000000 -0.000000 -0.000002 -0.000002 -0.000002 5.840784 4.521428 -1.450773 11.816284 9.029367 -3.075982 11.816291 9.029367 -3.075979 -0.841245 -0.254754 0.044784 -0.841247 -0.254755 0.044781 0.000000 0.000000 0.000000 -0.841245 -0.254746 0.044781 -0.841161 -0.254762 0.044784 -0.000003 -0.000001 -0.000000 0.000000 0.000000 0.000000 1.403722 -0.718930 -7.839972 -14.266480 2.365556 -63.277154 9.844805 -47.553426 5.909279 16.136423 0.923836 18.718866 9.350458 4.930267 -5.571203 -0.330715 0.042074 0.768182 0.000004 0.000000 -0.000004 -0.910877 -6.970582 -3.943952 0.031848 0.798737 -16.465351 0.000000 -0.000005 0.000005 1.936566 9.644435 -14.611805 -0.458358 -1.572750 -21.900098 -0.000001 0.000002 -0.000001 2.596881 14.861797 -31.419079 -0.567820 -2.707471 -32.042183 0.000003 0.000001 -0.000000 4.159248 18.461703 -35.059672 -0.697393 -5.786102 -39.401654 0.000000 -0.000007 -0.000002 -0.000003 -0.000002 0.000001 -0.000003 -0.000002 0.000001 -0.000003 -0.000001 0.000001 0.000001 -0.000001 0.000001 0.000001 -0.000001 0.000000 0.000001 -0.000001 0.000001 0.000001 -0.000001 0.000001 1.430510 9.405070 9.678224 1.235894 -24.179512 60.586455 -6.544958 41.889690 8.097196 6.161535 12.245870 11.559478 -9.036094 -5.081765 -0.502310 8.027047 -19.237192 -2.728292 -0.000000 -0.000003 -0.000001 -1.077321 -1.184785 4.326370 0.140202 -1.123464 16.868638 -0.000000 0.000002 0.000000 -0.657130 -2.930227 12.773055 -0.657856 1.807357 30.507740 0.000001 -0.000000 0.000001 2.431956 -7.424885 21.767615 -0.984254 3.753881 37.380816 -0.000003 0.000006 0.000001 3.482265 -10.057608 24.360013 -1.463878 7.877744 41.149506 0.000002 -0.000002 0.000001 0.000001 0.000001 -0.000002 -0.000001 -0.000000 -0.000000 0.000001 0.000001 -0.000000 -0.000001 0.000001 0.000002 -0.000001 0.000002 0.000000 -0.000001 0.000001 0.000002 -0.000001 0.000002 0.000000 -0.000002 -0.000000 0.000001 -0.000002 -0.000000 0.000001 -0.000002 -0.000000 0.000001 -0.000002 -0.000000 0.000001 -0.000002 -0.000000 0.000001 -0.000002 -0.000000 0.000001 -0.000002 -0.000000 0.000001 -0.000000 -0.000002 -0.000000 -0.000000 0.000000 0.000000 
-2.623550 87.856506 1.983824 -6.160470 -42.975663 -3.861656 -0.000000 0.000001 0.000000 -34.290316 2.875191 16.353863 38.536962 -14.700152 -0.103526 -1.748856 0.985224 -11.118084 -0.000000 0.000001 0.000000 -0.000000 -0.000001 -0.000000 1.119222 -13.651680 -18.477450 33.659452 -7.701335 -0.226816 -25.468163 -6.465900 21.349590 -0.000000 -0.000000 -0.000000 -0.000003 0.000003 -0.000003 5.831107 4.519126 -1.447421 11.796424 9.025300 -3.067687 11.796418 9.025292 -3.067683 -0.820775 -0.254815 0.042590 -0.820807 -0.254811 0.042589 0.000001 -0.000001 -0.000000 -0.820780 -0.254811 0.042588 -0.820693 -0.254815 0.042589 -0.000001 0.000001 -0.000000 0.000001 -0.000001 0.000000 1.409445 -0.687509 -7.757291 -14.266298 2.353055 -63.337225 9.824752 -47.588694 5.900912 16.114114 0.928888 18.615230 9.381499 4.968664 -5.573218 -0.321038 0.055115 0.762134 -0.000000 0.000002 -0.000006 -0.912162 -6.976607 -3.968421 0.029448 0.791003 -16.533363 0.000001 0.000002 -0.000003 1.927514 9.608083 -14.656594 -0.458763 -1.574329 -21.920048 -0.000002 -0.000000 0.000001 2.580273 14.817962 -31.483364 -0.568534 -2.708625 -32.058043 0.000002 -0.000004 -0.000003 4.136759 18.421500 -35.093078 -0.699009 -5.788019 -39.423186 0.000001 0.000000 0.000001 -0.000003 -0.000001 0.000001 -0.000003 -0.000001 0.000001 -0.000003 -0.000001 0.000001 -0.000000 0.000002 0.000001 -0.000000 0.000001 0.000001 -0.000000 0.000002 0.000001 -0.000000 0.000001 0.000001 1.446687 9.349270 9.561291 1.280171 -24.107989 60.677987 -6.437968 41.925798 8.155965 6.086553 12.162070 11.440889 -9.039212 -5.131293 -0.515254 8.066143 -19.333120 -2.702056 0.000000 0.000000 0.000001 -1.071081 -1.177547 4.219249 0.140993 -1.125932 16.866391 0.000000 0.000000 -0.000000 -0.654970 -2.939650 12.762909 -0.657118 1.805366 30.491235 0.000001 -0.000001 0.000000 2.434146 -7.431202 21.751152 -0.983408 3.752784 37.367818 0.000001 -0.000001 0.000001 3.480837 -10.054479 24.379725 -1.463091 7.876861 41.142495 0.000002 0.000003 0.000001 0.000001 0.000001 -0.000000 0.000001 -0.000000 -0.000000 0.000001 0.000001 -0.000000 -0.000000 0.000000 -0.000001 -0.000000 0.000001 -0.000000 -0.000000 0.000000 -0.000001 -0.000000 0.000001 -0.000002 -0.000001 -0.000001 0.000000 -0.000001 -0.000001 0.000000 -0.000001 -0.000001 0.000000 -0.000001 -0.000001 0.000000 -0.000001 -0.000001 0.000000 -0.000001 -0.000001 0.000000 -0.000001 -0.000001 0.000000 0.000000 -0.000001 -0.000000 -0.000000 0.000001 0.000000 
